<svg width="533" height="508" viewBox="0 0 533 508" fill="none" xmlns="http://www.w3.org/2000/svg">
<g filter="url(#filter0_d_0_1)">
<mask id="path-1-outside-1_0_1" maskUnits="userSpaceOnUse" x="4.93066" y="0" width="524" height="500" fill="black">
<rect fill="white" x="4.93066" width="524" height="500"/>
<path fill-rule="evenodd" clip-rule="evenodd" d="M370.879 93.1634C370.04 94.3099 369.209 95.4527 368.388 96.5916C337.591 79.2445 303.204 68.4074 266.931 68.4074C232.265 68.4074 199.323 78.3049 169.591 94.3232C169.309 93.937 169.027 93.5504 168.744 93.1634C139.422 53.0767 80.5589 12.3397 62.5257 25.5302C29.6597 49.5706 40.2401 125.625 69.5621 165.712C71.8625 168.857 74.3094 171.823 76.8816 174.607C46.1717 214.504 27.9307 257.996 27.9307 290.407C27.9307 359.907 134.935 476.407 266.931 476.407C398.927 476.407 505.931 359.907 505.931 290.407C505.931 258.897 488.69 216.915 459.513 177.943C463.28 174.227 466.816 170.147 470.061 165.712C499.383 125.625 509.963 49.5706 477.097 25.5302C459.064 12.3397 400.201 53.0767 370.879 93.1634Z"/>
</mask>
<path fill-rule="evenodd" clip-rule="evenodd" d="M370.879 93.1634C370.04 94.3099 369.209 95.4527 368.388 96.5916C337.591 79.2445 303.204 68.4074 266.931 68.4074C232.265 68.4074 199.323 78.3049 169.591 94.3232C169.309 93.937 169.027 93.5504 168.744 93.1634C139.422 53.0767 80.5589 12.3397 62.5257 25.5302C29.6597 49.5706 40.2401 125.625 69.5621 165.712C71.8625 168.857 74.3094 171.823 76.8816 174.607C46.1717 214.504 27.9307 257.996 27.9307 290.407C27.9307 359.907 134.935 476.407 266.931 476.407C398.927 476.407 505.931 359.907 505.931 290.407C505.931 258.897 488.69 216.915 459.513 177.943C463.28 174.227 466.816 170.147 470.061 165.712C499.383 125.625 509.963 49.5706 477.097 25.5302C459.064 12.3397 400.201 53.0767 370.879 93.1634Z" fill="#E8BB52"/>
<path d="M368.388 96.5916L357.1 116.631L375.01 126.719L387.038 110.051L368.388 96.5916ZM370.879 93.1634L389.443 106.742L389.443 106.742L370.879 93.1634ZM169.591 94.3232L150.999 107.864L162.822 124.096L180.5 114.572L169.591 94.3232ZM168.744 93.1634L150.18 106.742L150.18 106.742L168.744 93.1634ZM62.5257 25.5302L76.1045 44.0941L62.5257 25.5302ZM69.5621 165.712L88.1259 152.133L88.1259 152.133L69.5621 165.712ZM76.8816 174.607L95.1076 188.636L106.946 173.256L93.7762 159L76.8816 174.607ZM459.513 177.943L443.362 161.568L429.072 175.662L441.101 191.728L459.513 177.943ZM470.061 165.712L451.497 152.133L451.497 152.133L470.061 165.712ZM477.097 25.5302L463.518 44.0941L463.518 44.0941L477.097 25.5302ZM387.038 110.051C387.829 108.955 388.63 107.853 389.443 106.742L352.315 79.5845C351.45 80.7671 350.59 81.95 349.737 83.1325L387.038 110.051ZM266.931 91.4074C298.546 91.4074 329.078 100.847 357.1 116.631L379.675 76.552C346.103 57.6416 307.863 45.4074 266.931 45.4074V91.4074ZM180.5 114.572C207.494 100.028 236.715 91.4074 266.931 91.4074V45.4074C227.815 45.4074 191.152 56.5815 158.682 74.0748L180.5 114.572ZM150.18 106.742C150.454 107.117 150.727 107.491 150.999 107.864L188.182 80.7821C187.892 80.3831 187.6 79.984 187.308 79.5845L150.18 106.742ZM76.1045 44.0941C71.3089 47.6019 68.7936 44.7338 75.9105 46.8996C81.5384 48.6123 89.4491 52.4699 98.7797 58.5951C117.374 70.8016 137.321 89.162 150.18 106.742L187.308 79.5846C170.845 57.0781 146.7 35.0266 124.024 20.1406C112.719 12.7195 100.7 6.36067 89.3029 2.89229C79.3948 -0.122946 62.7592 -3.13675 48.9469 6.96639L76.1045 44.0941ZM88.1259 152.133C76.3275 136.003 67.5573 111.179 65.6475 87.7359C63.6056 62.6735 69.8287 48.6847 76.1045 44.0941L48.9469 6.96639C22.3568 26.4162 17.437 62.4747 19.7994 91.4712C22.2937 122.087 33.4747 155.334 50.9982 179.29L88.1259 152.133ZM93.7762 159C91.7953 156.856 89.9061 154.567 88.1259 152.133L50.9982 179.29C53.8189 183.147 56.8236 186.789 59.9869 190.214L93.7762 159ZM50.9307 290.407C50.9307 265.134 65.9413 226.528 95.1076 188.636L58.6555 160.578C26.4022 202.481 4.93066 250.859 4.93066 290.407H50.9307ZM266.931 453.407C207.693 453.407 153.124 427.172 113.071 392.154C93.1164 374.709 77.2826 355.516 66.5703 337.186C55.6857 318.56 50.9307 302.3 50.9307 290.407H4.93066C4.93066 313.265 13.5511 337.63 26.8547 360.395C40.3305 383.455 59.4974 406.418 82.7937 426.785C129.241 467.393 194.172 499.407 266.931 499.407V453.407ZM482.931 290.407C482.931 302.3 478.176 318.56 467.291 337.186C456.579 355.516 440.745 374.709 420.791 392.154C380.737 427.172 326.168 453.407 266.931 453.407V499.407C339.689 499.407 404.62 467.393 451.068 426.785C474.364 406.418 493.531 383.455 507.007 360.395C520.31 337.63 528.931 313.265 528.931 290.407H482.931ZM441.101 191.728C468.788 228.709 482.931 265.881 482.931 290.407H528.931C528.931 251.914 508.592 205.12 477.924 164.159L441.101 191.728ZM451.497 152.133C448.987 155.565 446.259 158.711 443.362 161.568L475.663 194.319C480.302 189.744 484.646 184.73 488.625 179.29L451.497 152.133ZM463.518 44.0941C469.794 48.6847 476.017 62.6735 473.976 87.7359C472.066 111.179 463.296 136.003 451.497 152.133L488.625 179.29C506.148 155.334 517.329 122.087 519.824 91.4712C522.186 62.4747 517.266 26.4162 490.676 6.96639L463.518 44.0941ZM389.443 106.742C402.302 89.162 422.249 70.8016 440.843 58.5951C450.174 52.4699 458.085 48.6123 463.713 46.8996C470.829 44.7338 468.314 47.6019 463.518 44.0941L490.676 6.9664C476.864 -3.13675 460.228 -0.122943 450.32 2.89229C438.923 6.36067 426.904 12.7195 415.599 20.1406C392.923 35.0266 368.778 57.0781 352.315 79.5846L389.443 106.742Z" fill="white" mask="url(#path-1-outside-1_0_1)"/>
</g>
<mask id="path-3-outside-2_0_1" maskUnits="userSpaceOnUse" x="12.9307" y="8" width="508" height="484" fill="black">
<rect fill="white" x="12.9307" y="8" width="508" height="484"/>
<path fill-rule="evenodd" clip-rule="evenodd" d="M370.879 93.1634C370.04 94.3099 369.209 95.4527 368.388 96.5916C337.591 79.2445 303.204 68.4074 266.931 68.4074C232.265 68.4074 199.323 78.3049 169.591 94.3232C169.309 93.937 169.027 93.5504 168.744 93.1634C139.422 53.0767 80.5589 12.3397 62.5257 25.5302C29.6597 49.5706 40.2401 125.625 69.5621 165.712C71.8625 168.857 74.3094 171.823 76.8816 174.607C46.1717 214.504 27.9307 257.996 27.9307 290.407C27.9307 359.907 134.935 476.407 266.931 476.407C398.927 476.407 505.931 359.907 505.931 290.407C505.931 258.897 488.69 216.915 459.513 177.943C463.28 174.227 466.816 170.147 470.061 165.712C499.383 125.625 509.963 49.5706 477.097 25.5302C459.064 12.3397 400.201 53.0767 370.879 93.1634Z"/>
</mask>
<path fill-rule="evenodd" clip-rule="evenodd" d="M370.879 93.1634C370.04 94.3099 369.209 95.4527 368.388 96.5916C337.591 79.2445 303.204 68.4074 266.931 68.4074C232.265 68.4074 199.323 78.3049 169.591 94.3232C169.309 93.937 169.027 93.5504 168.744 93.1634C139.422 53.0767 80.5589 12.3397 62.5257 25.5302C29.6597 49.5706 40.2401 125.625 69.5621 165.712C71.8625 168.857 74.3094 171.823 76.8816 174.607C46.1717 214.504 27.9307 257.996 27.9307 290.407C27.9307 359.907 134.935 476.407 266.931 476.407C398.927 476.407 505.931 359.907 505.931 290.407C505.931 258.897 488.69 216.915 459.513 177.943C463.28 174.227 466.816 170.147 470.061 165.712C499.383 125.625 509.963 49.5706 477.097 25.5302C459.064 12.3397 400.201 53.0767 370.879 93.1634Z" fill="#E8BB52"/>
<path d="M368.388 96.5916L361.026 109.661L372.706 116.24L380.551 105.369L368.388 96.5916ZM370.879 93.1634L382.986 102.019L382.986 102.019L370.879 93.1634ZM169.591 94.3232L157.466 103.154L165.176 113.74L176.705 107.529L169.591 94.3232ZM168.744 93.1634L156.637 102.019L156.637 102.019L168.744 93.1634ZM62.5257 25.5302L71.3815 37.6371L62.5257 25.5302ZM69.5621 165.712L81.6689 156.856L81.6689 156.856L69.5621 165.712ZM76.8816 174.607L88.7681 183.756L96.4885 173.726L87.8998 164.429L76.8816 174.607ZM459.513 177.943L448.979 167.264L439.66 176.455L447.505 186.933L459.513 177.943ZM470.061 165.712L457.954 156.856L457.954 156.856L470.061 165.712ZM477.097 25.5302L468.242 37.6371L468.242 37.6371L477.097 25.5302ZM380.551 105.369C381.352 104.259 382.164 103.142 382.986 102.019L358.772 84.3076C357.916 85.4777 357.066 86.6466 356.224 87.8139L380.551 105.369ZM266.931 83.4074C300.166 83.4074 332.039 93.3334 361.026 109.661L375.749 83.5223C343.142 65.1556 306.242 53.4074 266.931 53.4074V83.4074ZM176.705 107.529C204.652 92.4724 235.167 83.4074 266.931 83.4074V53.4074C229.363 53.4074 193.994 64.1375 162.476 81.1177L176.705 107.529ZM156.637 102.019C156.915 102.398 157.191 102.777 157.466 103.154L181.716 85.492C181.428 85.0975 181.14 84.7027 180.851 84.3076L156.637 102.019ZM71.3815 37.6371C69.822 38.7778 70.6373 36.9326 78.2396 39.2462C84.8708 41.2642 93.496 45.5568 103.17 51.9073C122.474 64.5799 143.151 83.5822 156.637 102.019L180.851 84.3076C165.015 62.6579 141.6 41.2484 119.633 26.8284C108.672 19.6326 97.3675 13.7088 86.9738 10.5457C77.5511 7.67823 64.2461 5.68737 53.67 13.4234L71.3815 37.6371ZM81.6689 156.856C68.8749 139.365 59.6854 113.076 57.6739 88.3855C55.5763 62.6389 61.5727 44.8119 71.3815 37.6371L53.67 13.4234C30.6127 30.289 25.4663 62.5093 27.7729 90.8216C30.1656 120.19 40.9274 151.972 57.4552 174.567L81.6689 156.856ZM87.8998 164.429C85.7133 162.062 83.6301 159.537 81.6689 156.856L57.4552 174.567C60.0949 178.176 62.9056 181.584 65.8633 184.785L87.8998 164.429ZM42.9307 290.407C42.9307 262.651 59.0649 222.346 88.7681 183.756L64.995 165.458C33.2786 206.663 12.9307 253.341 12.9307 290.407H42.9307ZM266.931 461.407C205.342 461.407 148.97 434.167 107.805 398.177C87.2696 380.224 70.8561 360.375 59.6632 341.222C48.358 321.876 42.9307 304.207 42.9307 290.407H12.9307C12.9307 311.358 20.8789 334.313 33.7617 356.358C46.7569 378.596 65.3442 400.904 88.0593 420.763C133.395 460.398 196.524 491.407 266.931 491.407V461.407ZM490.931 290.407C490.931 304.207 485.503 321.876 474.198 341.222C463.005 360.375 446.592 380.224 426.056 398.177C384.891 434.167 328.52 461.407 266.931 461.407V491.407C337.338 491.407 400.466 460.398 445.802 420.763C468.517 400.904 487.104 378.596 500.1 356.358C512.982 334.313 520.931 311.358 520.931 290.407H490.931ZM447.505 186.933C475.711 224.607 490.931 263.452 490.931 290.407H520.931C520.931 254.343 501.669 209.223 471.52 168.954L447.505 186.933ZM457.954 156.856C455.188 160.637 452.179 164.108 448.979 167.264L470.046 188.623C474.381 184.347 478.444 179.658 482.168 174.567L457.954 156.856ZM468.242 37.6371C478.05 44.8119 484.047 62.6389 481.949 88.3855C479.938 113.076 470.748 139.365 457.954 156.856L482.168 174.567C498.696 151.972 509.457 120.19 511.85 90.8216C514.157 62.5093 509.01 30.289 485.953 13.4234L468.242 37.6371ZM382.986 102.019C396.472 83.5822 417.149 64.5799 436.453 51.9073C446.127 45.5568 454.752 41.2642 461.383 39.2462C468.986 36.9326 469.801 38.7778 468.242 37.6371L485.953 13.4234C475.377 5.68737 462.072 7.67823 452.649 10.5457C442.256 13.7088 430.951 19.6326 419.99 26.8284C398.023 41.2484 374.608 62.6579 358.772 84.3076L382.986 102.019Z" fill="#4A291F" mask="url(#path-3-outside-2_0_1)"/>
<path d="M406.541 114.274C403.181 118.867 401.559 131.522 427.312 150.359C453.065 169.196 460.627 161.579 464.317 156.535C487.117 125.365 493.479 55.506 475.919 42.661C465.87 35.3104 429.341 83.1039 406.541 114.274Z" fill="#FFFFFB"/>
<path d="M406.541 114.274C403.181 118.867 401.559 131.522 427.312 150.359C453.065 169.196 460.627 161.579 464.317 156.535C487.117 125.365 493.479 55.506 475.919 42.661C465.87 35.3104 429.341 83.1039 406.541 114.274Z" fill="#FFFFFB"/>
<path d="M133.082 114.274C136.442 118.867 138.064 131.522 112.311 150.359C86.558 169.196 78.9957 161.579 75.3062 156.535C52.5064 125.365 46.1436 55.506 63.7042 42.661C73.7534 35.3104 110.282 83.1039 133.082 114.274Z" fill="#FFFFFB"/>
<path d="M215.916 256.63C221.01 255.597 224.386 250.544 222.187 245.834C219.215 239.464 214.614 233.904 208.769 229.741C200.325 223.728 189.902 221.068 179.567 222.291C169.232 223.513 159.739 228.528 152.971 236.341C148.277 241.759 145.131 248.248 143.769 255.145C142.765 260.226 147.221 264.322 152.397 264.138V264.138C157.579 263.955 161.454 259.429 163.408 254.626C164.323 252.377 165.608 250.27 167.23 248.397C170.937 244.118 176.137 241.371 181.798 240.702C187.459 240.032 193.168 241.489 197.793 244.783C199.837 246.238 201.603 248.006 203.037 250.002C206.049 254.195 210.856 257.656 215.916 256.63V256.63Z" fill="#4A291F"/>
<ellipse cx="170.572" cy="182.523" rx="23" ry="15.5" transform="rotate(-9.59051 170.572 182.523)" fill="#FFFFFB"/>
<ellipse rx="23" ry="15.5" transform="matrix(-0.986024 -0.166605 -0.166605 0.986024 355.572 182.523)" fill="#FFFFFB"/>
<ellipse cx="347.312" cy="243.907" rx="29" ry="28.5" fill="#4A291F"/>
<path fill-rule="evenodd" clip-rule="evenodd" d="M490.577 316.939C491.587 313.753 490.921 310.286 488.743 307.752C472.446 288.789 445.577 276.407 415.19 276.407C389.798 276.407 366.861 285.054 350.498 298.961C343.311 305.07 329.492 303.316 323.916 295.708C310.451 277.336 288.714 265.407 264.19 265.407C239.918 265.407 218.376 277.093 204.882 295.145C199.612 302.194 187.707 303.752 180.916 298.154C164.623 284.72 142.087 276.407 117.189 276.407C86.775 276.407 59.8844 288.812 43.5925 307.803C41.4175 310.339 40.7544 313.804 41.7648 316.988C64.3153 388.055 169.217 469.407 266.163 469.407C363.132 469.407 468.06 388.018 490.577 316.939Z" fill="white"/>
<path d="M300.312 296.907C300.312 312.095 273.372 331.407 264.812 331.407C256.251 331.407 229.312 312.095 229.312 296.907C229.312 281.72 256.251 276.407 264.812 276.407C273.372 276.407 300.312 281.72 300.312 296.907Z" fill="#4A291F"/>
<path d="M265 351L265 319" stroke="#4A291F" stroke-width="12" stroke-linecap="round" stroke-linejoin="round"/>
<circle cx="348.431" cy="241.907" r="8.5" fill="white"/>
<rect x="241" y="351" width="47" height="55" rx="21" fill="#FB7575"/>
<path d="M199.312 348.407C203.27 353.741 214.715 364.407 228.823 364.407C246.457 364.407 255.454 353.245 264.812 353.245C274.169 353.245 283.166 364.407 300.801 364.407C314.908 364.407 326.353 353.741 330.312 348.407" stroke="#4A291F" stroke-width="12" stroke-linecap="round" stroke-linejoin="round"/>
<defs>
<filter id="filter0_d_0_1" x="0.930664" y="0.00180054" width="532" height="507.406" filterUnits="userSpaceOnUse" color-interpolation-filters="sRGB">
<feFlood flood-opacity="0" result="BackgroundImageFix"/>
<feColorMatrix in="SourceAlpha" type="matrix" values="0 0 0 0 0 0 0 0 0 0 0 0 0 0 0 0 0 0 127 0" result="hardAlpha"/>
<feOffset dy="4"/>
<feGaussianBlur stdDeviation="2"/>
<feColorMatrix type="matrix" values="0 0 0 0 0 0 0 0 0 0 0 0 0 0 0 0 0 0 0.25 0"/>
<feBlend mode="normal" in2="BackgroundImageFix" result="effect1_dropShadow_0_1"/>
<feBlend mode="normal" in="SourceGraphic" in2="effect1_dropShadow_0_1" result="shape"/>
</filter>
</defs>
</svg>
