<svg width="410" height="376" viewBox="0 0 410 376" fill="none" xmlns="http://www.w3.org/2000/svg">
<path fill-rule="evenodd" clip-rule="evenodd" d="M226.974 0.360138C333.149 0.360138 355.503 147.505 355.937 148.716C356.385 149.963 356.807 151.247 357.214 152.493C358.042 155.024 359.108 157.461 359.936 159.975C360.443 161.509 361.374 162.779 361.998 164.228C363.209 166.995 364.693 169.636 366.427 172.11C367.143 173.09 367.706 174.173 368.096 175.322C368.37 176.201 369.277 176.435 369.669 177.211C370.303 178.467 371.149 179.615 371.88 180.821C372.047 181.245 372.43 181.546 372.882 181.609L372.739 182.807C373.004 183.238 373.094 182.655 373.371 182.758C373.718 183.225 374.213 183.64 374.263 184.351C374.309 185.02 375.09 185.083 375.357 185.666C375.942 186.932 377.571 187.577 377.547 189.239C378.718 189.974 379.294 191.236 380.177 192.226C380.631 192.682 380.907 193.282 380.96 193.919L380.968 194.067C380.961 194.7 382.185 194.558 381.856 195.423C383.729 196.829 384.215 199.126 385.205 201.029C386.791 204.082 388.62 207.033 389.697 210.376C390.237 212.049 391.283 213.631 391.865 215.325C393.173 219.132 394.744 222.856 395.594 226.821C395.945 228.458 396.661 230.018 396.997 231.661L397.384 233.559C397.96 236.407 398.506 239.263 398.869 242.149C399.055 242.8 399.055 243.491 398.868 244.142C398.556 244.883 399.386 245.358 399.452 246.101C399.536 246.983 399.183 247.818 399.437 248.755C399.577 249.27 399.437 250.099 399.598 250.698C400.119 252.644 399.459 254.651 400.026 256.584C400.115 257.332 400.037 258.089 399.796 258.802C399.404 261.182 400.122 263.612 399.405 265.936C399.07 267.082 399.006 268.289 399.217 269.462L399.305 269.914C399.369 270.249 399.411 270.575 399.246 270.801C398.594 271.693 398.761 272.746 398.632 273.722L398.607 273.883C398.419 274.977 398.613 276.122 398.282 277.235C397.832 278.326 397.579 279.487 397.535 280.665C397.702 282.664 397.029 284.457 396.617 286.313C396.412 287.24 396.582 288.342 395.562 289.031C395.043 289.382 396.267 290.063 395.525 290.576L395.437 290.63C394.893 290.938 394.916 291.434 395.07 292.028C395.21 292.572 394.261 292.947 394.533 293.503C394.804 294.059 394.927 294.869 394.609 294.971C393.816 295.231 394.623 296.093 393.957 296.257C393.891 296.293 393.846 296.356 393.834 296.43C393.607 298.517 392.263 300.23 391.931 302.317C391.679 303.562 391.194 304.749 390.501 305.815C389.927 306.844 389.439 307.919 389.042 309.028C388.297 310.893 387.021 312.451 386.302 314.308C386.107 314.81 384.806 314.642 385.468 315.673C384.708 315.941 384.939 316.728 384.634 317.219C384.297 317.59 383.906 317.907 383.472 318.159C383.192 319.264 382.654 320.288 381.904 321.146C380.592 323.065 379.161 324.898 377.618 326.636L376.343 328.063C374.639 329.966 372.88 331.828 370.635 333.14C370.057 333.477 370.32 334.117 369.845 334.464C367.092 336.496 364.556 338.802 361.424 340.342C360.113 340.988 358.989 342.133 357.649 342.805C355.11 344.079 352.752 345.666 350.036 346.659L349.553 346.828C347.823 347.404 346.12 348.276 344.364 348.909C340.756 350.326 336.991 351.305 333.149 351.823L330.779 352.086C328.673 352.319 326.563 352.533 324.435 352.591C323.428 352.619 322.462 352.3 321.54 352.415C320.642 352.528 319.731 352.455 318.863 352.199C318.177 352.007 317.597 352.597 316.858 352.28C316.291 351.926 315.589 351.872 314.978 352.131L314.857 352.187C314.507 352.39 313.818 352.015 313.284 351.895C312.506 351.786 311.742 351.597 311.003 351.331C310.431 351.066 309.701 351.917 309.302 351.012C308.578 351.574 259.387 339.885 214.201 363.622C210.522 366.06 206.216 367.131 202.284 369.024C200.456 369.906 198.401 370.309 196.433 370.911L196.013 371.044C192.54 372.166 188.978 372.932 185.421 373.733C182.154 374.44 178.843 374.932 175.51 375.206C173.114 375.422 170.707 375.523 168.316 375.784C167.347 375.889 166.397 375.206 165.449 375.793C163.317 375.213 161.08 375.917 158.955 375.262C157.542 375.68 156.214 375.161 154.914 374.779C153.923 374.485 152.989 375.095 151.987 374.662C151.075 374.186 150.054 373.96 149.026 374.004C147.319 374.266 145.834 373.64 144.28 373.309C140.669 372.54 137.07 371.709 133.485 370.815C132.311 370.521 130.992 370.635 129.986 369.737C129.103 368.949 127.71 369.443 126.843 368.512C126.527 368.173 126.123 368.83 125.646 368.574C124.717 368.074 123.522 368.404 122.653 367.503C122.009 366.836 120.795 367.287 120.082 366.482L119.988 366.364C119.568 365.78 118.458 367.157 118.13 365.856C116.804 365.755 115.705 365.032 114.524 364.537C113.546 364.128 112.391 364.359 111.509 363.507C110.756 362.781 109.335 363.315 108.683 362.227C107.089 362.214 105.914 361.021 104.395 360.707C103.241 360.404 102.134 359.949 101.102 359.352C99.4662 358.511 97.805 357.718 96.1315 356.967C95.5311 356.687 94.9466 356.375 94.3807 356.032C94.0634 355.846 93.9863 355.435 93.533 355.335C90.6634 354.699 88.25 353.027 85.7988 351.564C84.401 350.842 83.0636 350.009 81.7993 349.074L81.3806 348.759C81.0106 348.44 80.2421 348.284 79.9168 347.841C79.0098 346.609 77.653 346.007 76.4229 345.267L76.2191 345.142C75.5261 344.734 74.8961 344.227 74.349 343.638C74.2454 343.525 74.2033 343.282 74.0933 343.255C72.0513 342.751 70.8327 341.064 69.2715 339.885C67.9285 338.872 66.7538 337.637 65.4314 336.604L64.928 336.227C61.8332 334.013 27.9702 296.752 24.1331 290.321L23.035 288.481C21.9385 286.637 20.8546 284.78 19.8566 282.886L19.0067 281.274C18.1582 279.658 17.323 278.031 16.5846 276.375L15.5967 274.165C13.6257 269.743 11.697 265.298 10.0531 260.732C8.58725 256.659 7.37372 252.518 6.14859 248.374C5.36388 245.714 4.7008 243.041 4.14062 240.33C3.24565 235.998 2.4476 231.648 1.74647 227.28C1.09253 223.168 1.33443 218.995 0.461142 214.93C1.03328 212.433 -0.0186004 209.899 0.634536 207.405C0.15003 206.174 0.576065 204.896 0.621603 203.682C0.66831 202.429 0.387212 201.116 0.887634 199.846C1.11688 199.27 0.586963 198.576 0.874083 197.872C1.18928 197.286 1.22565 196.589 0.973272 195.974C1.8241 195.582 0.809946 194.98 1.16328 194.423C1.54422 193.818 1.7125 193.104 1.64154 192.393C1.39378 190.802 2.31022 189.333 2.14933 187.896C1.98158 186.426 2.7075 185.18 2.70521 183.863L2.69585 183.615C2.57057 181.885 3.8069 180.583 3.84813 178.947C3.85203 178.804 4.19042 178.672 4.37595 178.529C4.31644 178.161 3.90943 178.245 3.62072 177.958C4.08162 177.558 4.4849 177.097 4.81909 176.586C5.07205 175.887 5.25171 175.162 5.35517 174.426L4.18319 172.914C4.61566 172.049 4.46489 171.262 5.0423 170.584C5.29361 170.288 5.15348 169.382 5.18451 168.757C5.22541 167.936 6.28081 167.446 6.02622 166.798C5.82982 166.052 5.89345 165.261 6.20663 164.556C7.71657 157.899 9.25459 151.249 10.8207 144.605C10.9854 143.893 10.8421 142.998 11.7184 142.58C10.7608 141.592 12.2647 141.247 12.288 140.463C12.4101 139.73 12.6924 139.034 13.1148 138.422C13.713 137.279 13.768 135.859 14.1087 134.57C14.1984 133.659 14.5435 132.792 15.1045 132.067C15.6879 131.463 15.6038 130.411 16.0431 129.563C16.6637 128.538 17.1446 127.435 17.4732 126.283C17.5722 125.456 17.9022 124.672 18.4255 124.023C18.8901 123.51 18.5085 122.448 19.4116 122.061C19.6649 120.572 20.5538 119.376 21.2119 118.072L21.3323 117.826C22.9488 114.469 24.7657 111.213 26.7731 108.073C28.4408 105.431 30.0636 102.761 31.7568 100.135C32.3077 99.2882 32.8934 98.4436 33.4992 97.639C35.6034 94.6799 37.87 91.8391 40.2884 89.1299C42.5003 86.7859 44.6088 84.3367 46.9312 82.0828C48.1658 80.8838 49.1762 79.4117 50.3748 78.138C53.1995 75.132 56.1002 72.2072 59.1511 69.4313C61.7276 66.8859 64.5452 64.5958 67.5644 62.5931C68.3852 62.0941 69.0602 61.3621 69.8525 60.8096C70.8144 60.2798 71.7374 59.6824 72.6145 59.022C73.6349 58.0624 74.887 57.452 75.9177 56.5629C76.7178 55.8731 77.9977 56.2664 78.5704 55.0256C78.9877 54.1227 80.5499 54.4535 81.076 53.3985C82.5181 53.3506 83.1916 51.9543 84.5013 51.4953L84.6759 51.4409C86.0556 51.0645 87.2333 49.9507 88.4993 49.161C89.7202 48.2964 90.9978 47.5144 92.3235 46.8202C94.8123 45.6995 96.9605 43.9918 99.3931 42.8342C101.713 41.732 103.8 40.1184 106.33 39.5039C106.927 39.3592 106.816 38.8322 107.227 38.6072C107.655 38.372 108.124 38.5278 108.511 38.2564C110.11 37.2129 120.798 0.360138 226.974 0.360138Z" fill="#FF565E"/>
<path fill-rule="evenodd" clip-rule="evenodd" d="M107.207 79.3524C103.655 81.356 98.4546 78.8 97.8715 74.7641C100.137 74.6432 102.558 74.4665 104.349 73.0739C106.14 71.6814 106.767 68.5977 104.972 67.2108C90.3574 65.416 76.1408 60.4507 63.5871 52.7566C72.159 50.1737 79.5349 44.7254 87.5864 40.8108C95.6378 36.8962 105.376 34.5811 113.406 38.5394C121.291 42.4262 130.368 37.4683 138.596 34.3734C152.903 28.9918 169.309 29.443 183.299 35.6028C193.506 40.0969 210.802 32.8024 221.828 31.1294C239.839 28.3967 257.421 41.0201 275.507 38.8339C273.566 40.1168 271.626 41.3997 269.686 42.6825C271.597 42.5079 273.518 42.4373 275.436 42.4711C260.427 49.6533 245.418 56.8356 230.409 64.0178C234.212 65.5558 238.014 67.0938 241.816 68.6318C240.922 71.4973 237.718 73.4326 234.766 72.89C237.141 74.7805 239.517 76.671 241.892 78.5615C239.357 80.3625 236.147 81.1899 233.057 80.8394C236.348 82.9644 239.065 85.9707 240.846 89.46C248.686 86.848 257.275 86.5264 265.288 88.5447C258.048 89.4939 250.808 90.4431 243.567 91.3924C244.661 94.3694 245.754 97.3463 246.847 100.323C256.306 98.1586 266.358 98.6507 275.56 101.729C266.436 101.961 257.311 102.193 248.186 102.426C247.972 114.532 241.946 126.878 231.363 132.761C220.78 138.644 199.633 143.875 192.629 126.745C187.266 130.265 187.646 138.725 191.469 143.875C195.293 149.025 201.367 151.876 206.861 155.186C225.109 166.184 238.873 184.397 244.471 204.954C250.069 225.512 247.441 248.188 237.289 266.92C250.976 269.048 263.695 276.837 271.81 288.062C289.287 279.93 298.967 261.376 312.354 247.506C327.582 231.73 348.604 221.674 370.444 219.718C383.366 218.561 398.102 221.052 405.639 231.612C415.436 245.337 406.404 266.676 390.766 272.986C378.369 277.987 364.388 275.472 351.054 276.417C324.241 278.317 300.701 294.127 278.592 309.415C277.69 314.365 279.5 319.724 283.218 323.114C291.127 314.939 301.103 308.781 311.954 305.374C315.966 304.114 321.978 304.443 322.424 308.623C322.592 310.206 321.76 311.706 320.918 313.057C313.683 324.655 303.481 334.386 291.554 341.065C285.258 344.591 278.223 347.324 271.019 346.92C263.815 346.517 256.478 342.358 254.031 335.57C252.897 332.425 252.775 328.784 250.627 326.221C246.994 321.885 240.015 323.183 234.923 325.646C229.83 328.109 224.402 331.458 218.937 329.996C205.276 326.343 191.059 324.776 176.93 325.367C158.937 326.12 140.603 330.309 123.17 325.79C117.347 324.281 110.829 321.9 105.67 324.995C95.5034 331.094 102.361 350.619 91.9305 356.255C88.2359 358.252 83.708 357.516 79.632 356.504C61.6196 352.033 44.7245 343.131 30.8532 330.801C29.5164 329.613 28.1391 328.278 27.7643 326.529C26.6402 321.284 34.3836 319.101 39.6598 320.072C48.6226 321.722 57.1946 325.458 64.5043 330.901C67.0667 332.808 70.9655 330.583 72.051 327.578C73.1366 324.574 72.3896 321.265 71.9659 318.099C69.29 298.099 81.8371 277.072 100.709 269.93C89.2831 253.256 84.9383 231.892 88.944 212.08C92.9497 192.268 105.253 174.27 122.259 163.345C129.052 158.98 136.858 155.411 141.187 148.595C145.517 141.779 143.617 130.344 135.696 128.773C128.234 136.855 116.095 140.274 105.512 137.274C94.9278 134.274 86.3886 124.995 84.2768 114.198C77.252 116.571 70.2273 118.943 63.2025 121.316C69.4376 116.51 76.8215 113.207 84.5592 111.76C85.3018 108.542 86.0445 105.324 86.7871 102.107C73.383 101.242 59.7901 103.448 47.3475 108.507C55.0042 102.744 64.746 99.8151 74.3115 100.401C84.0408 100.997 93.9308 96.2366 99.5341 88.2607C96.0284 87.0281 92.8776 84.8031 90.5435 81.9115C94.1188 79.9708 98.4491 79.4678 102.374 80.5375M175.97 290.387C175.331 291.008 174.645 291.746 174.69 292.635C174.735 293.524 176.069 294.188 176.529 293.426C179.041 289.265 183.41 286.273 188.198 285.435C192.985 284.597 198.11 285.927 201.886 288.987C203.204 290.055 204.38 291.331 205.885 292.112C206.427 292.393 207.354 292.401 207.377 291.791C207.384 291.59 207.269 291.408 207.157 291.242C204.445 287.246 200.391 284.178 195.807 282.655C191.79 281.32 187.135 281.236 183.542 283.474C182.237 284.287 181.124 285.369 180.023 286.441C178.672 287.756 177.321 289.072 175.97 290.387ZM156.486 283.115C151.285 282.427 145.685 284.173 142.221 288.114C141.611 288.808 141.056 289.59 140.846 290.491C140.636 291.391 140.833 292.433 141.531 293.04C144.21 288.878 148.972 286.133 153.916 285.899C158.861 285.666 163.86 287.951 166.919 291.843C167.398 292.451 167.854 293.116 168.533 293.488C169.212 293.86 170.2 293.812 170.614 293.158C171.107 292.376 170.51 291.376 169.901 290.681C166.445 286.733 161.688 283.803 156.486 283.115ZM193.176 277.79C193.095 278.669 194.257 279.217 195.092 278.929C195.927 278.641 196.48 277.872 197.04 277.188C201.689 271.501 210.544 269.788 216.979 273.329C217.823 272.616 217.872 271.249 217.307 270.3C216.742 269.35 215.71 268.767 214.658 268.431C212.378 267.702 209.903 267.95 207.557 268.425C202.006 269.548 196.397 272.18 193.479 277.035C193.338 277.269 193.201 277.517 193.176 277.79ZM171.349 296.24C169.068 296.399 166.834 297.003 164.698 297.82C161.746 298.95 158.839 300.596 157.111 303.243C159.646 303.961 162.075 302.071 164.39 300.815C169.583 297.996 176.319 298.288 181.25 301.544C182.797 302.566 184.784 303.885 186.293 302.807C182.764 298.383 176.994 295.848 171.349 296.24ZM180.724 294.814C182.455 293.912 183.838 292.448 185.555 291.519C187.919 290.24 190.864 290.093 193.344 291.129C194.691 291.691 195.884 292.571 197.211 293.179C198.538 293.786 200.118 294.102 201.441 293.483C201.587 293.415 201.739 293.324 201.801 293.175C201.902 292.932 201.723 292.669 201.55 292.471C198.591 289.094 193.955 287.264 189.488 287.71C185.02 288.156 180.838 290.866 178.605 294.761C179.071 295.375 180.041 295.17 180.724 294.814ZM146.064 294.975C146.991 294.448 147.716 293.633 148.564 292.986C150.259 291.691 152.468 291.095 154.587 291.341C156.948 291.615 159.077 292.865 161.03 294.22C161.602 294.617 162.184 295.034 162.861 295.191C163.539 295.349 164.345 295.178 164.728 294.598C165.107 294.024 164.955 293.223 164.55 292.668C164.144 292.113 163.535 291.747 162.942 291.399C160.528 289.984 157.977 288.569 155.183 288.424C151.69 288.244 148.443 290.065 145.422 291.828C144.197 292.542 142.79 293.625 143.05 295.02C143.888 295.679 145.136 295.503 146.064 294.975ZM161.795 281.435C162.426 282.251 163.661 281.376 164.357 280.615C166.501 278.272 169.592 276.821 172.765 276.669C175.938 276.517 179.154 277.665 181.513 279.792C182.108 280.328 182.735 280.962 183.536 280.984C184.337 281.005 185.059 279.888 184.423 279.399C181.022 276.787 177.065 274.651 172.786 274.369C168.506 274.087 163.894 276.007 161.913 279.811C161.647 280.32 161.444 280.98 161.795 281.435ZM199.633 280.719C200.198 280.48 200.612 279.995 201.044 279.56C204.337 276.247 209.915 275.507 213.958 277.846C214.969 278.431 216.49 279.076 217.078 278.066C217.568 277.224 216.694 276.244 215.861 275.739C210.424 272.442 202.672 273.698 198.554 278.544C198.134 279.037 197.732 279.714 198.02 280.294C198.293 280.843 199.068 280.958 199.633 280.719ZM202.639 281.031C202.405 281.226 202.172 281.445 202.074 281.733C201.799 282.538 202.777 283.292 203.625 283.224C204.474 283.157 205.194 282.612 205.964 282.249C207.84 281.364 210.094 281.575 211.999 282.397C212.752 282.723 213.482 283.143 214.293 283.265C215.105 283.387 216.051 283.118 216.421 282.385C213.194 278.386 206.583 277.736 202.639 281.031ZM151.617 279.496C152.099 279.722 152.756 279.678 153.066 279.246C153.487 278.658 153.036 277.857 152.589 277.288C151.074 275.363 149.445 273.467 147.363 272.175C145.281 270.884 142.66 270.262 140.341 271.054C140.105 271.91 141.171 272.492 142.01 272.784C145.239 273.91 148.17 275.88 150.432 278.445C150.784 278.844 151.136 279.27 151.617 279.496ZM180.155 281.645C176.344 279.214 171.142 279.172 167.292 281.539C166.623 281.951 165.935 282.529 165.883 283.313C165.831 284.097 166.895 284.824 167.423 284.242C169.55 281.898 173.437 281.411 176.077 283.159C177.372 284.018 179.234 283.9 180.412 282.887C180.968 282.828 180.627 281.945 180.155 281.645ZM207.878 294.796C202.463 294.43 197.424 297.616 193.494 301.359C193.78 302.02 194.756 301.845 195.417 301.559C199.893 299.622 204.369 297.684 208.846 295.747C209.182 295.302 208.435 294.833 207.878 294.796ZM156.341 297.207C157.007 297.585 157.659 298.098 158.425 298.099C159.19 298.1 159.949 297.178 159.464 296.586C157.935 294.722 155.531 293.607 153.12 293.644C150.71 293.681 148.342 294.869 146.87 296.779C147.052 297.473 147.901 297.793 148.611 297.689C149.321 297.585 149.947 297.185 150.605 296.9C152.426 296.111 154.615 296.228 156.341 297.207ZM183.193 296.699C183.132 297.232 183.737 297.64 184.272 297.61C184.808 297.581 185.279 297.268 185.749 297.009C187.721 295.922 190.15 295.7 192.288 296.409C193.657 296.864 195.366 297.607 196.355 296.556C196.442 295.955 195.839 295.502 195.303 295.217C193.383 294.195 191.27 293.425 189.095 293.445C186.921 293.465 184.677 294.378 183.436 296.163C183.323 296.326 183.216 296.502 183.193 296.699ZM179.152 273.301C181.39 274.103 183.475 275.331 185.261 276.9C185.998 277.547 186.702 278.264 187.596 278.668C188.489 279.071 189.648 279.082 190.347 278.395C188.801 277.208 187.53 275.664 186.663 273.918C186.196 272.977 184.952 272.805 183.903 272.753C182.37 272.678 180.837 272.603 179.304 272.528C179.142 272.746 179.085 273.038 179.152 273.301ZM159.157 278.684C159.948 277.945 160.532 277.013 161.264 276.214C162.398 274.975 163.891 274.069 165.514 273.637C166.214 273.45 167.134 273.092 167.029 272.375C165.045 272.03 162.782 271.752 161.218 273.019C159.027 274.794 157.291 277.125 156.216 279.732C157.273 279.965 158.365 279.423 159.157 278.684ZM141.526 277.786C142.948 278.712 144.369 279.639 145.79 280.565C146.392 280.957 147.16 281.358 147.785 281.003C148.364 280.673 148.453 279.824 148.151 279.23C147.849 278.636 147.273 278.238 146.72 277.866C145.563 277.087 144.406 276.308 143.248 275.528C142.279 274.876 140.7 274.356 140.173 275.398C139.719 276.297 140.682 277.236 141.526 277.786ZM171.454 288.92C171.998 289.459 172.76 290.043 173.451 289.712C173.766 289.561 173.969 289.251 174.155 288.956C174.772 287.982 175.388 287.008 176.004 286.034C174.391 284.24 171.224 284.192 169.557 285.936C169.429 286.07 169.304 286.224 169.281 286.408C169.245 286.699 169.47 286.951 169.678 287.158C170.27 287.745 170.862 288.333 171.454 288.92ZM146.581 302.846C147.737 303.251 149.101 303.371 150.121 302.692C148.586 300.927 146.787 299.392 144.803 298.154C144.24 297.803 143.605 297.463 142.948 297.557C142.291 297.65 141.71 298.397 142.028 298.979C143.004 300.767 144.659 302.172 146.581 302.846ZM210 288.658C210.546 287.998 211.093 287.338 211.639 286.678C211.827 286.45 212.026 286.194 212.014 285.899C211.999 285.525 211.656 285.255 211.33 285.072C210.195 284.433 208.854 284.167 207.561 284.322C207.067 284.382 206.552 284.516 206.204 284.873C205.856 285.23 205.756 285.863 206.106 286.217C206.899 287.021 207.692 287.824 208.485 288.628C208.744 288.89 209.073 289.175 209.433 289.097C209.671 289.045 209.845 288.846 210 288.658ZM152.998 274.397C153.488 274.925 154.103 275.465 154.821 275.406C156.359 275.278 156.856 272.623 158.393 272.769C158.805 272.089 157.679 271.544 156.884 271.532C154.825 271.499 152.766 271.467 150.707 271.434C151.379 272.488 152.147 273.481 152.998 274.397ZM165.712 303.333C169.994 303.315 174.277 303.296 178.559 303.277C178.184 302.431 177.179 302.087 176.273 301.899C173.301 301.283 170.185 301.377 167.256 302.171C166.6 302.349 165.851 302.668 165.712 303.333ZM192.154 298.827C190.737 298.891 189.32 298.955 187.903 299.019C187.446 299.04 186.859 299.172 186.802 299.627C186.777 299.83 186.879 300.025 186.978 300.204C187.352 300.884 187.751 301.592 188.399 302.02C189.047 302.449 190.022 302.491 190.526 301.9C190.912 301.447 190.943 300.74 191.403 300.363C191.7 300.12 192.112 300.072 192.44 299.873C192.768 299.674 192.977 299.159 192.673 298.925C192.53 298.816 192.334 298.819 192.154 298.827ZM155.466 301.197C155.844 300.606 155.486 299.77 154.896 299.39C154.306 299.01 153.569 298.965 152.868 298.93C152.094 298.891 151.075 299.034 150.936 299.796C150.87 300.16 151.055 300.516 151.234 300.839C151.759 301.787 152.532 302.874 153.61 302.767C154.446 302.684 155.012 301.905 155.466 301.197ZM211.439 292.7C212.075 292.752 212.645 292.321 213.091 291.865C214.452 290.474 215.317 288.608 215.5 286.67C215.05 286.383 214.499 286.829 214.154 287.237C212.995 288.607 211.837 289.977 210.678 291.347C210.266 291.834 210.803 292.647 211.439 292.7ZM140.559 282.994C141.205 283.802 142.452 284.056 143.362 283.564C143.829 283.312 144.222 282.812 144.129 282.29C144.047 281.825 143.624 281.51 143.234 281.244C142.671 280.86 142.107 280.476 141.544 280.092C141.372 279.975 141.174 279.852 140.97 279.894C140.829 279.923 140.716 280.026 140.622 280.134C139.941 280.914 139.913 282.185 140.559 282.994ZM190.6 274.459C191.277 275.027 192.28 274.44 192.951 273.867C193.68 273.244 194.408 272.621 195.137 271.999C194.724 271.605 194.065 271.694 193.507 271.809C191.885 272.145 190.262 272.48 188.64 272.815C189.294 273.363 189.947 273.911 190.6 274.459ZM216.075 266.501C216.483 267.01 217.343 266.901 217.811 266.446C218.28 265.992 218.453 265.321 218.587 264.682C218.619 264.529 218.649 264.363 218.585 264.22C218.421 263.856 217.882 263.966 217.52 264.135C216.548 264.588 215.403 265.665 216.075 266.501Z" fill="white"/>
<path fill-rule="evenodd" clip-rule="evenodd" d="M188.717 40.1528C186.547 40.416 184.635 42.1538 184.167 44.2888C201.732 34.8446 222.948 32.4166 242.193 37.6482C242.21 47.3537 235.401 56.6886 226.155 59.6384L206.109 66.0335C211.397 66.62 216.831 65.8445 221.744 63.8023C223.489 66.5526 226.365 68.5614 229.548 69.254L223.386 70.6053C224.294 73.3734 226.149 75.8213 228.568 77.4444C226.515 76.7413 224.231 76.7341 222.173 77.4242L223.553 82.4342C214.467 81.174 204.759 82.4111 197.106 87.4685C189.453 92.5258 184.314 101.822 185.693 110.891C187.307 101.031 194.064 92.1607 203.14 87.9853C212.217 83.81 223.349 84.4513 231.886 89.6414L226.095 93.9309C228.319 94.8155 230.955 94.5895 232.996 93.3391C237.453 95.311 236.219 103.466 231.378 104.031L237.781 104.477C238.892 115.366 232.165 126.595 222.04 130.755C211.915 134.914 199.237 131.657 192.371 123.132C183.849 127.484 184.446 140.675 190.52 148.07C194.76 153.232 200.599 156.585 206.448 159.944L206.448 159.945C208.978 161.397 211.509 162.851 213.914 164.453C226.688 172.961 236.21 186.23 240.182 201.055C233.245 205.7 227.075 211.487 221.995 218.111C229.511 217.76 236.871 214.695 242.414 209.606L243.597 221.054C237.512 222.928 232.045 226.753 228.199 231.826C233.622 232.379 239.214 231.112 243.869 228.277C242.202 241.449 239.192 254.451 234.902 267.017L220.917 266.903C224.235 257.733 227.596 247.867 225.151 238.427C222.707 228.987 211.742 221.194 203.112 225.735C213.038 217.735 220.554 206.784 224.449 194.645L199.455 226.908L180.275 227.07C179.672 218.033 179.092 208.771 181.661 200.086C184.23 191.401 190.644 183.271 199.482 181.291C200.441 181.076 201.461 180.901 202.496 180.724C206.815 179.984 211.37 179.204 212.638 175.3C198.311 174.467 183.951 183.638 178.681 196.986C174.926 206.498 175.588 217.1 176.307 227.301C163.062 225.391 149.501 225.698 136.356 228.205C134.074 220.427 131.708 212.474 126.921 205.932C122.135 199.39 114.364 194.429 106.298 195.236C119.288 197.167 125.723 211.601 130.621 223.786C135.519 235.97 144.411 249.888 157.487 248.682C161.212 248.339 162.397 254.457 159.543 256.873C156.689 259.29 152.448 258.83 148.794 258.03C129.974 253.912 112.403 244.248 98.8455 230.56C96.2058 227.895 93.6532 224.978 92.4336 221.431C90.9287 217.054 91.6298 212.221 92.9238 207.777C99.5345 185.076 119.879 169.522 139.213 155.912C149.615 148.59 149.242 130.444 138.548 123.556C130.632 130.75 120.077 135.78 109.445 134.606C98.8131 133.432 88.7509 124.727 88.408 114.037C91.7473 113.742 95.0201 112.717 97.9305 111.054C95.0738 110.039 91.8542 110.082 89.0259 111.174C88.2568 108.293 88.8184 105.084 90.5205 102.636L96.5822 101.988C95.3637 100.61 93.664 99.6665 91.8502 99.3605C96.2249 92.0708 106.378 90.0756 114.515 92.5389C122.652 95.0022 129.242 100.871 135.547 106.574C128.973 92.1609 111.147 87.5148 95.5824 84.5611L102.374 80.5375C98.4491 79.4678 94.1188 79.9708 90.5435 81.9115C92.8776 84.8031 96.0284 87.0281 99.5341 88.2607C93.9308 96.2366 84.0408 100.997 74.3115 100.401C64.746 99.8151 55.0042 102.744 47.3475 108.507C59.7901 103.448 73.383 101.242 86.7871 102.107L84.5592 111.76C76.8215 113.207 69.4376 116.51 63.2025 121.316L84.2768 114.198C86.3886 124.995 94.9278 134.274 105.512 137.274C116.095 140.274 128.234 136.855 135.696 128.773C143.617 130.344 145.517 141.779 141.187 148.595C137.759 153.992 132.152 157.353 126.593 160.686L126.593 160.686L126.593 160.686L126.592 160.686L126.592 160.686C125.131 161.562 123.673 162.436 122.259 163.345C105.253 174.27 92.9497 192.268 88.944 212.08C84.9383 231.892 89.2831 253.256 100.709 269.93C81.8371 277.072 69.29 298.099 71.9659 318.099C72.0272 318.556 72.0952 319.017 72.1634 319.48L72.1635 319.48L72.1636 319.48C72.5674 322.216 72.9795 325.008 72.051 327.578C70.9655 330.583 67.0667 332.808 64.5043 330.901C57.1946 325.458 48.6226 321.722 39.6598 320.072C34.3836 319.101 26.6402 321.284 27.7643 326.529C28.1391 328.278 29.5164 329.613 30.8532 330.801C44.7245 343.131 61.6196 352.033 79.632 356.504C83.708 357.516 88.2359 358.252 91.9305 356.255C97.1905 353.413 98.054 347.039 98.9214 340.635C99.7741 334.341 100.631 328.019 105.67 324.995C110.222 322.265 115.83 323.796 121.086 325.231L121.087 325.231L121.088 325.231L121.089 325.232L121.09 325.232L121.091 325.232C121.791 325.423 122.486 325.613 123.17 325.79C135.669 329.03 148.631 327.794 161.599 326.557C166.718 326.069 171.837 325.58 176.93 325.367C191.059 324.776 205.276 326.343 218.937 329.996C223.695 331.269 228.426 328.895 232.931 326.634C233.6 326.298 234.264 325.965 234.923 325.646C240.015 323.183 246.994 321.885 250.627 326.221C252.064 327.935 252.594 330.132 253.128 332.341L253.128 332.341C253.391 333.434 253.656 334.529 254.031 335.57C256.478 342.358 263.815 346.517 271.019 346.92C278.223 347.324 285.258 344.591 291.554 341.065C303.481 334.386 313.683 324.655 320.918 313.057C321.76 311.706 322.592 310.206 322.424 308.623C321.978 304.443 315.966 304.114 311.954 305.374C301.103 308.781 291.127 314.939 283.218 323.114C279.5 319.724 277.69 314.365 278.592 309.415C300.701 294.127 324.241 278.317 351.054 276.417C355.258 276.119 359.526 276.165 363.789 276.211C373.046 276.311 382.278 276.41 390.766 272.986C406.404 266.676 415.436 245.337 405.639 231.612C398.102 221.052 383.366 218.561 370.444 219.718C348.604 221.674 327.582 231.73 312.354 247.506C308.125 251.887 304.266 256.736 300.415 261.577L300.415 261.577L300.414 261.577L300.414 261.578L300.414 261.578L300.413 261.578L300.413 261.579L300.413 261.579L300.413 261.579L300.412 261.58L300.412 261.58L300.412 261.58L300.412 261.58L300.411 261.581L300.411 261.581L300.411 261.581L300.41 261.582L300.41 261.582L300.41 261.582L300.41 261.583L300.409 261.583L300.409 261.583L300.409 261.584L300.409 261.584L300.408 261.584C292.069 272.063 283.764 282.501 271.81 288.062C263.695 276.837 250.976 269.048 237.289 266.92C247.441 248.188 250.069 225.512 244.471 204.954C238.873 184.397 225.109 166.184 206.861 155.186C205.873 154.591 204.866 154.011 203.857 153.429L203.857 153.429L203.856 153.428L203.855 153.428L203.855 153.428L203.854 153.427L203.854 153.427L203.853 153.427L203.852 153.426L203.852 153.426L203.851 153.426L203.851 153.425L203.85 153.425L203.849 153.425L203.849 153.424L203.848 153.424L203.848 153.424L203.847 153.423L203.846 153.423L203.846 153.423L203.845 153.422L203.845 153.422L203.844 153.421L203.843 153.421L203.843 153.421L203.842 153.42L203.842 153.42L203.841 153.42L203.84 153.419L203.84 153.419L203.839 153.419L203.839 153.418L203.838 153.418L203.838 153.418L203.837 153.417C199.242 150.768 194.601 148.093 191.469 143.875C187.646 138.725 187.266 130.265 192.629 126.745C199.76 136.531 214.725 138.644 225.307 132.761C235.89 126.878 241.917 114.532 242.13 102.426L269.505 101.729C260.303 98.6507 250.251 98.1586 240.792 100.323L237.512 91.3924L259.233 88.5447C251.219 86.5264 242.631 86.848 234.791 89.46C233.009 85.9707 230.293 82.9644 227.001 80.8394C230.092 81.1899 233.301 80.3625 235.837 78.5615L228.71 72.89C231.663 73.4326 234.867 71.4973 235.761 68.6318L224.354 64.0178L269.381 42.4711C267.462 42.4373 265.542 42.5079 263.631 42.6825L269.451 38.8339C260.565 39.9081 251.799 37.4067 243.045 34.9084C233.984 32.3223 224.933 29.7395 215.773 31.1294C212.174 31.6755 208.552 32.8204 204.951 33.9589C197.519 36.3083 190.175 38.6301 183.299 35.6028C169.309 29.443 152.903 28.9918 138.596 34.3734C137.331 34.8493 136.046 35.3693 134.748 35.8943C127.605 38.7839 120.079 41.8285 113.406 38.5394C105.376 34.5811 95.6378 36.8962 87.5864 40.8108C84.76 42.185 82.0169 43.7482 79.276 45.3101L79.276 45.3101C74.2091 48.1975 69.1499 51.0804 63.5871 52.7566C76.1408 60.4507 90.3574 65.416 104.972 67.2108C106.767 68.5977 106.14 71.6814 104.349 73.0739C102.558 74.4665 100.137 74.6432 97.8715 74.7641C98.4546 78.8 103.655 81.356 107.207 79.3524C105.714 79.6297 105.603 77.205 106.223 75.8193L110.092 67.1723C113.097 68.2758 116.837 66.5053 117.888 63.4817C110.447 64.3774 102.726 65.2487 95.5968 62.9336C88.468 60.6185 82.0986 54.16 82.4327 46.6721C98.3079 37.4742 119.62 38.7197 134.316 49.7041C133.181 46.3924 130.392 43.6946 127.044 42.6706C130.909 38.8655 136.04 36.3683 141.419 35.6741C138.223 38.2024 136.759 42.7226 137.865 46.6446L152.213 33.4481C149.859 37.6676 148.541 42.4597 148.405 47.2894C153.726 43.812 157.966 38.7035 160.403 32.8323L166.785 33.7285C162.878 37.03 160.701 42.2761 161.123 47.3743C165.986 44.3507 169.757 39.6085 171.607 34.1888C177.6 35.1571 183.42 37.1858 188.717 40.1528ZM365.027 273.765C361.818 273.659 358.607 273.553 355.415 273.643C331.653 274.318 309.562 285.892 289.956 299.335C289.809 299.435 289.662 299.536 289.515 299.637L289.131 299.902L289.131 299.902C285.41 302.461 281.653 305.044 277.406 306.554L272.417 292.012C272.149 291.232 271.984 290.16 272.71 289.767C280.339 285.642 287.305 280.294 293.262 273.989C297.231 269.789 300.751 265.173 304.267 260.563L304.267 260.562C309.247 254.033 314.218 247.515 320.443 242.203C330.383 233.719 342.897 228.864 355.454 225.243C364.747 222.563 374.484 220.46 384.042 221.932C393.601 223.404 403.012 229.109 406.517 238.123C409.301 245.282 407.939 253.727 403.65 260.099C399.361 266.471 392.397 270.808 384.934 272.627C378.444 274.209 371.741 273.988 365.027 273.765ZM91.623 304.57C92.1254 305.765 92.4424 307.36 91.4393 308.181C90.1474 309.239 88.3146 307.876 87.229 306.607L77.9764 295.795C75.7613 301.553 74.745 307.769 75.0112 313.933C75.0646 315.171 75.1654 316.426 75.2666 317.686C75.6533 322.501 76.0452 327.379 73.8153 331.554C72.8373 333.386 71.1729 335.067 69.1011 335.201C67.9268 335.277 66.7833 334.848 65.6995 334.389C62.7288 333.133 59.8017 331.589 56.8754 330.046C49.3431 326.073 41.8165 322.102 33.5683 323.05C32.442 323.179 31.0393 323.735 31.0833 324.868C31.103 325.375 31.4339 325.811 31.7558 326.204C43.6476 340.727 62.244 347.77 80.2457 353.087C83.1898 353.957 86.2929 354.804 89.2909 354.143C92.2889 353.483 95.0718 350.78 94.7098 347.731C93.752 339.666 96.2791 331.246 101.52 325.041C103.612 322.564 106.258 320.359 109.433 319.7C113.332 318.89 117.144 320.496 120.897 322.078C121.861 322.485 122.822 322.89 123.779 323.252C131.116 326.026 139.363 326.328 146.884 324.1C143.943 324.061 142.531 320.536 141.922 317.659C137.974 299.023 135.875 279.995 135.666 260.945C135.643 258.874 134.19 257.043 132.437 255.938C130.954 255.004 129.262 254.484 127.58 253.967C127.275 253.873 126.971 253.779 126.668 253.683C120.542 251.743 114.771 248.692 109.717 244.725C109.08 244.225 108.453 243.709 107.826 243.193C105.891 241.604 103.956 240.013 101.735 238.873C98.7943 237.365 95.1549 236.749 92.2075 238.245C91.55 239.812 92.7389 241.632 94.2603 242.389C95.4124 242.962 96.7031 243.117 97.9909 243.272C98.4035 243.322 98.8158 243.371 99.2232 243.435C101.16 243.736 103.046 244.367 104.774 245.292C106.589 246.264 108.308 248.831 106.691 250.105C106.027 250.628 105.097 250.591 104.255 250.529L94.7543 249.831C97.0704 256.132 100.023 262.199 103.553 267.91C103.87 268.422 104.293 268.992 104.896 268.998C114.204 269.081 124.598 270.384 130.496 277.585C131.614 278.95 132.531 280.923 131.573 282.404C126.166 275.875 117.708 271.987 109.233 272.133C100.757 272.279 92.4387 276.457 87.2604 283.169C91.8309 286.228 95.4642 290.668 97.5587 295.753C98.1913 297.289 98.0749 299.801 96.4143 299.766L86.4411 287.555C85.9954 287.009 85.4599 286.417 84.7557 286.395C84.1909 286.378 83.6932 286.739 83.2452 287.084C82.2751 287.829 81.2684 288.619 80.762 289.733C80.2556 290.847 80.444 292.379 81.4989 292.999C85.9948 295.64 89.6028 299.763 91.623 304.57ZM205.325 323.68C211.73 318.337 213.819 309.54 215.539 301.379L221.841 271.474C221.909 271.154 221.986 270.815 222.216 270.583C222.519 270.277 222.995 270.244 223.426 270.231C234.914 269.884 247.145 270.978 256.398 277.796C252.622 279.667 249.322 282.489 246.886 285.927C246.202 286.892 245.631 288.343 246.511 289.133C246.841 289.429 247.301 289.534 247.743 289.565C249.949 289.722 251.963 288.345 253.575 286.831C253.923 286.504 254.264 286.167 254.606 285.829C255.849 284.599 257.097 283.364 258.674 282.642C260.685 281.722 263.478 281.98 264.587 283.893C261.001 285.719 258.047 288.758 256.321 292.393C255.872 293.34 255.501 294.434 255.865 295.417C256.229 296.399 257.66 296.975 258.364 296.199L265.292 288.551C265.627 288.181 266.092 287.775 266.561 287.946C266.814 288.038 266.979 288.278 267.124 288.505C270.796 294.266 272.255 300.974 273.721 307.712C274.579 311.657 275.439 315.612 276.747 319.392C277.795 322.421 279.818 325.824 283.024 325.826C284.795 325.827 286.362 324.738 287.764 323.655C289.263 322.498 290.754 321.285 292.253 320.065C299.298 314.332 306.504 308.468 315.377 307.766C316.776 307.655 318.57 307.963 318.899 309.328C319.089 310.12 318.663 310.917 318.238 311.613C311.642 322.408 301.75 330.92 290.821 337.292C285.225 340.554 279.089 343.355 272.612 343.405C266.136 343.456 259.277 340.144 256.83 334.147C256.331 332.924 256.025 331.633 255.72 330.343C255.367 328.85 255.015 327.36 254.363 325.977C252.684 322.415 248.962 319.908 245.029 319.69C241.285 319.483 237.842 321.151 234.407 322.815C233.2 323.4 231.994 323.984 230.776 324.486C222.691 327.821 213.184 327.52 205.325 323.68ZM162.573 259.298C160.162 261.355 156.919 262.177 153.759 262.409C148.064 262.826 142.253 261.493 137.31 258.635L139.349 266.355C139.437 266.688 139.542 267.046 139.818 267.251C140.058 267.429 140.376 267.451 140.674 267.467L169.981 269.007C174.253 269.232 178.531 269.456 182.808 269.333C194.803 268.986 206.709 265.855 217.322 260.255C217.935 259.932 218.558 259.588 218.999 259.054C219.525 258.418 219.733 257.584 219.908 256.778C221.395 249.96 221.652 242.875 220.664 235.967C220.421 234.27 220.083 232.53 219.129 231.106C218.175 229.681 216.459 228.64 214.775 228.961C197.528 232.245 179.923 231.231 162.318 230.216L162.317 230.216C155.683 229.834 149.048 229.452 142.433 229.3C141.252 229.272 140.01 229.267 138.973 229.832C137.935 230.397 137.221 231.738 137.754 232.793C140.77 238.761 147.003 242.569 153.466 244.287C153.93 244.411 154.405 244.531 154.886 244.654C159.066 245.717 163.67 246.888 165.188 250.779C166.339 253.732 164.984 257.241 162.573 259.298ZM209.592 309.88C208.41 314.574 205.925 319.443 201.416 321.204C199.839 321.819 198.131 322.003 196.444 322.16C180.811 323.614 165.011 323.264 149.458 321.117C148.532 320.99 147.556 320.834 146.834 320.24C145.955 319.516 145.657 318.319 145.426 317.204C144.72 313.786 144.173 310.335 143.787 306.867C143.719 306.253 143.889 305.376 144.505 305.424C154.458 306.198 164.439 306.605 174.421 306.643C181.307 306.67 188.248 306.514 194.973 305.035C201.698 303.556 208.255 300.665 213.172 295.844C211.774 298.779 211.173 301.986 210.57 305.197C210.276 306.767 209.981 308.338 209.592 309.88ZM175.97 290.387C175.331 291.008 174.645 291.746 174.69 292.635C174.735 293.524 176.069 294.188 176.529 293.426C179.041 289.265 183.41 286.273 188.198 285.435C192.985 284.597 198.11 285.927 201.886 288.987C202.278 289.304 202.656 289.64 203.035 289.975L203.035 289.976L203.036 289.976L203.036 289.976L203.037 289.977L203.037 289.977L203.038 289.978L203.038 289.978L203.038 289.978C203.933 290.771 204.828 291.564 205.885 292.112C206.427 292.393 207.354 292.401 207.377 291.791C207.384 291.59 207.269 291.408 207.157 291.242C204.445 287.246 200.391 284.178 195.807 282.655C191.79 281.32 187.135 281.236 183.542 283.474C182.237 284.287 181.124 285.369 180.023 286.441L175.97 290.387ZM142.221 288.114C145.685 284.173 151.285 282.427 156.486 283.115C161.688 283.803 166.445 286.733 169.901 290.681C170.51 291.376 171.107 292.376 170.614 293.158C170.2 293.812 169.212 293.86 168.533 293.488C167.941 293.164 167.518 292.616 167.102 292.078L167.1 292.075C167.04 291.997 166.98 291.919 166.919 291.843C163.86 287.951 158.861 285.666 153.916 285.899C148.972 286.133 144.21 288.878 141.531 293.04C140.833 292.433 140.636 291.391 140.846 290.491C141.056 289.59 141.611 288.808 142.221 288.114ZM193.176 277.79C193.095 278.669 194.257 279.217 195.092 278.929C195.843 278.67 196.367 278.021 196.872 277.395L196.942 277.309L196.983 277.257L197.04 277.188C201.689 271.501 210.544 269.788 216.979 273.329C217.823 272.616 217.872 271.249 217.307 270.3C216.742 269.35 215.71 268.767 214.658 268.431C212.378 267.702 209.903 267.95 207.557 268.425C202.006 269.548 196.397 272.18 193.479 277.035C193.338 277.269 193.201 277.517 193.176 277.79ZM164.698 297.82C166.834 297.003 169.068 296.399 171.349 296.24C176.994 295.848 182.764 298.383 186.293 302.807C184.789 303.881 182.81 302.574 181.265 301.554L181.25 301.544C176.319 298.288 169.583 297.996 164.39 300.815C163.985 301.035 163.576 301.274 163.164 301.515C161.221 302.653 159.202 303.835 157.111 303.243C158.839 300.596 161.746 298.95 164.698 297.82ZM180.724 294.814C181.609 294.353 182.404 293.744 183.198 293.136C183.957 292.554 184.716 291.973 185.555 291.519C187.919 290.24 190.864 290.093 193.344 291.129C194.068 291.431 194.747 291.825 195.426 292.219C196.011 292.558 196.597 292.898 197.211 293.179C198.538 293.786 200.118 294.102 201.441 293.483C201.587 293.415 201.739 293.324 201.801 293.175C201.902 292.932 201.723 292.669 201.55 292.471C198.591 289.094 193.955 287.264 189.488 287.71C185.02 288.156 180.838 290.866 178.605 294.761C179.071 295.375 180.041 295.17 180.724 294.814ZM147.653 293.753C147.149 294.199 146.646 294.644 146.064 294.975C145.136 295.503 143.888 295.679 143.05 295.02C142.79 293.625 144.197 292.542 145.422 291.828C148.443 290.065 151.69 288.244 155.183 288.424C157.977 288.569 160.528 289.984 162.942 291.399C163.535 291.747 164.144 292.113 164.55 292.668C164.955 293.223 165.107 294.024 164.728 294.598C164.345 295.178 163.539 295.349 162.861 295.191C162.209 295.04 161.645 294.648 161.094 294.265L161.03 294.22C159.077 292.865 156.948 291.615 154.587 291.341C152.468 291.095 150.259 291.691 148.564 292.986C148.249 293.226 147.951 293.49 147.654 293.753L147.653 293.753L147.653 293.753ZM161.795 281.435C162.426 282.251 163.661 281.376 164.357 280.615C166.501 278.272 169.592 276.821 172.765 276.669C175.938 276.517 179.154 277.665 181.513 279.792C181.561 279.835 181.609 279.879 181.658 279.923C182.21 280.426 182.8 280.964 183.536 280.984C184.337 281.005 185.059 279.888 184.423 279.399C181.022 276.787 177.065 274.651 172.786 274.369C168.506 274.087 163.894 276.007 161.913 279.811C161.647 280.32 161.444 280.98 161.795 281.435ZM200.853 279.755L200.853 279.755C200.486 280.133 200.114 280.516 199.633 280.719C199.068 280.958 198.293 280.843 198.02 280.294C197.732 279.714 198.134 279.037 198.554 278.544C202.672 273.698 210.424 272.442 215.861 275.739C216.694 276.244 217.568 277.224 217.078 278.066C216.49 279.076 214.969 278.431 213.958 277.846C209.915 275.507 204.337 276.247 201.044 279.56C200.98 279.624 200.917 279.69 200.853 279.755ZM202.639 281.031C202.405 281.226 202.172 281.445 202.074 281.733C201.799 282.538 202.777 283.292 203.625 283.224C204.239 283.175 204.786 282.876 205.334 282.577C205.543 282.463 205.751 282.349 205.964 282.249C207.84 281.364 210.094 281.575 211.999 282.397C212.179 282.475 212.358 282.559 212.537 282.642C213.106 282.907 213.676 283.172 214.293 283.265C215.105 283.387 216.051 283.118 216.421 282.385C213.194 278.386 206.583 277.736 202.639 281.031ZM153.066 279.246C152.756 279.678 152.099 279.722 151.617 279.496C151.17 279.286 150.834 278.904 150.507 278.531L150.432 278.445C148.17 275.88 145.239 273.91 142.01 272.784C141.171 272.492 140.105 271.91 140.341 271.054C142.66 270.262 145.281 270.884 147.363 272.175C149.445 273.467 151.074 275.363 152.589 277.288C153.036 277.857 153.487 278.658 153.066 279.246ZM180.155 281.645C176.344 279.214 171.142 279.172 167.292 281.539C166.623 281.951 165.935 282.529 165.883 283.313C165.831 284.097 166.895 284.824 167.423 284.242C169.55 281.898 173.437 281.411 176.077 283.159C177.372 284.018 179.234 283.9 180.412 282.887C180.968 282.828 180.627 281.945 180.155 281.645ZM193.494 301.359C197.424 297.616 202.463 294.43 207.878 294.796C208.435 294.833 209.182 295.302 208.846 295.747L195.417 301.559C194.756 301.845 193.78 302.02 193.494 301.359ZM156.409 297.247L156.446 297.268L156.486 297.292L156.559 297.335C156.618 297.371 156.677 297.407 156.737 297.443C157.27 297.769 157.811 298.099 158.425 298.099C159.19 298.1 159.949 297.178 159.464 296.586C157.935 294.722 155.531 293.607 153.12 293.644C150.71 293.681 148.342 294.869 146.87 296.779C147.052 297.473 147.901 297.793 148.611 297.689C149.123 297.614 149.591 297.386 150.059 297.157C150.24 297.068 150.421 296.98 150.605 296.9C152.426 296.111 154.615 296.228 156.341 297.207C156.364 297.22 156.387 297.234 156.409 297.247ZM184.272 297.61C183.737 297.64 183.132 297.232 183.193 296.699C183.216 296.502 183.323 296.326 183.436 296.163C184.677 294.378 186.921 293.465 189.095 293.445C191.27 293.425 193.383 294.195 195.303 295.217C195.839 295.502 196.442 295.955 196.355 296.556C195.465 297.502 193.992 296.995 192.707 296.552L192.705 296.551C192.563 296.502 192.424 296.454 192.288 296.409C190.15 295.7 187.721 295.922 185.749 297.009C185.681 297.046 185.613 297.085 185.545 297.123C185.141 297.352 184.731 297.585 184.272 297.61ZM179.152 273.301C181.39 274.103 183.475 275.331 185.261 276.9C185.298 276.933 185.335 276.966 185.372 276.998C185.459 277.076 185.546 277.154 185.633 277.233C186.241 277.781 186.853 278.332 187.596 278.668C188.489 279.071 189.648 279.082 190.347 278.395C188.801 277.208 187.53 275.664 186.663 273.918C186.196 272.977 184.952 272.805 183.903 272.753L179.304 272.528C179.142 272.746 179.085 273.038 179.152 273.301ZM160.409 277.247C160.015 277.749 159.622 278.25 159.157 278.684C158.365 279.423 157.273 279.965 156.216 279.732C157.291 277.125 159.027 274.794 161.218 273.019C162.782 271.752 165.045 272.03 167.029 272.375C167.134 273.092 166.214 273.45 165.514 273.637C163.891 274.069 162.398 274.975 161.264 276.214C160.962 276.543 160.686 276.895 160.409 277.247ZM141.526 277.786L145.79 280.565C146.392 280.957 147.16 281.358 147.785 281.003C148.364 280.673 148.453 279.824 148.151 279.23C147.849 278.636 147.273 278.238 146.72 277.866L143.248 275.528C142.279 274.876 140.7 274.356 140.173 275.398C139.719 276.297 140.682 277.236 141.526 277.786ZM173.451 289.712C172.76 290.043 171.998 289.459 171.454 288.92L169.678 287.158C169.47 286.951 169.245 286.699 169.281 286.408C169.304 286.224 169.429 286.07 169.557 285.936C171.224 284.192 174.391 284.24 176.004 286.034L174.155 288.956C173.969 289.251 173.766 289.561 173.451 289.712ZM146.581 302.846C147.737 303.251 149.101 303.371 150.121 302.692C148.586 300.927 146.787 299.392 144.803 298.154C144.24 297.803 143.605 297.463 142.948 297.557C142.291 297.65 141.71 298.397 142.028 298.979C143.004 300.767 144.659 302.172 146.581 302.846ZM211.639 286.678L210 288.658C209.845 288.846 209.671 289.045 209.433 289.097C209.073 289.175 208.744 288.89 208.485 288.628L206.106 286.217C205.756 285.863 205.856 285.23 206.204 284.873C206.552 284.516 207.067 284.382 207.561 284.322C208.854 284.167 210.195 284.433 211.33 285.072C211.656 285.255 211.999 285.525 212.014 285.899C212.026 286.194 211.827 286.45 211.639 286.678ZM152.998 274.397C153.488 274.925 154.103 275.465 154.821 275.406C155.564 275.344 156.064 274.693 156.556 274.052C157.082 273.367 157.598 272.694 158.393 272.769C158.805 272.089 157.679 271.544 156.884 271.532L150.707 271.434C151.379 272.488 152.147 273.481 152.998 274.397ZM178.559 303.277L165.712 303.333C165.851 302.668 166.6 302.349 167.256 302.171C170.185 301.377 173.301 301.283 176.273 301.899C177.179 302.087 178.184 302.431 178.559 303.277ZM192.154 298.827L187.903 299.019C187.446 299.04 186.859 299.172 186.802 299.627C186.777 299.83 186.879 300.025 186.978 300.204C187.352 300.884 187.751 301.592 188.399 302.02C189.047 302.449 190.022 302.491 190.526 301.9C190.699 301.697 190.801 301.442 190.902 301.19C191.026 300.879 191.149 300.571 191.403 300.363C191.571 300.225 191.777 300.15 191.983 300.075C192.14 300.017 192.298 299.959 192.44 299.873C192.768 299.674 192.977 299.159 192.673 298.925C192.53 298.816 192.334 298.819 192.154 298.827ZM154.896 299.39C155.486 299.77 155.844 300.606 155.466 301.197C155.012 301.905 154.446 302.684 153.61 302.767C152.532 302.874 151.759 301.787 151.234 300.839C151.055 300.516 150.87 300.16 150.936 299.796C151.075 299.034 152.094 298.891 152.868 298.93C153.569 298.965 154.306 299.01 154.896 299.39ZM211.439 292.7C212.075 292.752 212.645 292.321 213.091 291.865C214.452 290.474 215.317 288.608 215.5 286.67C215.05 286.383 214.499 286.829 214.154 287.237L210.678 291.347C210.266 291.834 210.803 292.647 211.439 292.7ZM143.362 283.564C142.452 284.056 141.205 283.802 140.559 282.994C139.913 282.185 139.941 280.914 140.622 280.134C140.716 280.026 140.829 279.923 140.97 279.894C141.174 279.852 141.372 279.975 141.544 280.092L143.234 281.244C143.624 281.51 144.047 281.825 144.129 282.29C144.222 282.812 143.829 283.312 143.362 283.564ZM190.6 274.459C191.277 275.027 192.28 274.44 192.951 273.867L195.137 271.999C194.724 271.605 194.065 271.694 193.507 271.809L188.64 272.815L190.6 274.459ZM92.2114 231.654C91.7145 231.212 91.5872 230.49 91.5723 229.825C91.5555 229.075 91.6434 228.322 91.8327 227.596L95.0584 231.796C95.2509 232.046 95.4089 232.477 95.1245 232.615C94.7212 232.344 94.2254 232.267 93.7327 232.191C93.1754 232.105 92.6221 232.019 92.2114 231.654ZM216.075 266.501C216.483 267.01 217.343 266.901 217.811 266.446C218.28 265.992 218.453 265.321 218.587 264.682C218.619 264.529 218.649 264.363 218.585 264.22C218.421 263.856 217.882 263.966 217.52 264.135C216.548 264.588 215.403 265.665 216.075 266.501ZM179.571 80.8325C179.966 79.8466 180.885 79.1806 181.79 78.6248C184.521 76.9473 187.554 75.7627 190.699 75.145C191.452 74.9972 192.349 74.925 192.871 75.4866C193.459 76.1183 193.165 77.2109 192.512 77.7755C191.931 78.2786 191.166 78.485 190.418 78.6869C190.327 78.7116 190.235 78.7363 190.145 78.7614C187.629 79.4579 185.263 80.6877 183.247 82.346C182.473 82.9834 181.554 83.7343 180.587 83.4657C179.564 83.1814 179.177 81.8185 179.571 80.8325ZM122.998 81.063C122.268 80.6678 121.775 79.6813 122.229 78.9863C122.493 78.582 122.986 78.3978 123.454 78.279C127.246 77.3165 131.172 79.0157 134.602 80.8976C135.374 81.3212 136.169 81.7826 136.655 82.5166C137.142 83.2506 137.213 84.3382 136.578 84.9484C135.515 85.9696 133.83 84.9191 132.63 84.063C130.529 82.5639 128.004 81.6655 125.428 81.5002C125.313 81.4928 125.197 81.4867 125.081 81.4805C124.36 81.4423 123.627 81.4035 122.998 81.063ZM162.75 135.43L160.255 128.316C158.035 129.918 156.376 132.282 155.622 134.914C154.941 134.359 154.916 133.422 154.891 132.502C154.884 132.227 154.876 131.953 154.851 131.692C154.704 130.141 153.73 128.693 152.349 127.972C150.968 127.251 149.224 127.279 147.867 128.045C148.227 128.832 149.075 129.082 149.948 129.34C150.527 129.511 151.118 129.685 151.584 130.022C152.568 130.733 152.85 132.074 152.865 133.289C152.869 133.593 152.861 133.9 152.853 134.207C152.83 135.124 152.806 136.043 153.093 136.907C153.186 137.186 153.317 137.464 153.543 137.652C154.182 138.184 155.151 137.742 155.799 137.22C157.263 136.039 158.414 134.475 159.105 132.726C159.714 133.335 159.939 134.19 160.163 135.038L160.163 135.038L160.163 135.038C160.228 135.287 160.294 135.536 160.369 135.777C160.699 136.841 161.489 137.979 162.602 137.927C163.343 137.893 163.941 137.334 164.466 136.81L167.484 133.795C167.848 133.432 168.242 132.97 168.125 132.469C168.013 131.989 167.443 131.731 166.955 131.8C166.466 131.869 166.048 132.177 165.666 132.489C164.594 133.364 163.615 134.351 162.75 135.43ZM155.856 106.894C156.017 105.59 156.105 104.071 155.148 103.172C153.36 101.495 151.795 99.5809 150.505 97.4963C149.942 96.5872 149.414 95.525 149.682 94.4901C150.087 92.927 151.987 92.3617 153.59 92.1666C156.155 91.8543 158.751 91.8013 161.326 92.0086C162.432 92.0976 163.605 92.2639 164.452 92.9817C165.299 93.6994 165.604 95.1548 164.787 95.906C160.781 99.5889 158.435 105.014 158.495 110.456C159.981 111.42 161.491 112.396 163.183 112.918C164.876 113.439 166.805 113.456 168.331 112.558C168.974 112.18 169.514 111.663 170.054 111.145L170.054 111.144C170.427 110.787 170.801 110.428 171.209 110.115C172.21 109.348 173.642 108.872 174.714 109.536L170.635 113.291C169.01 114.788 166.991 116.397 164.84 115.894C164.128 115.727 163.502 115.341 162.874 114.955C162.501 114.724 162.126 114.494 161.732 114.308C159.626 113.317 157.154 113.687 154.878 114.176C154.804 114.192 154.73 114.208 154.656 114.224C154.591 114.238 154.526 114.252 154.461 114.266C152.313 114.732 150.09 115.213 147.981 114.635C145.736 114.019 143.767 111.685 144.469 109.466C145.883 111.534 148.344 112.845 150.849 112.865C151.811 112.872 152.803 112.688 153.6 112.149C155.231 111.046 155.615 108.849 155.856 106.894Z" fill="#00160A"/>
</svg>
